<?xml version="1.0" encoding="UTF-8"?>
<svg id="Layer_1" data-name="Layer 1" xmlns="http://www.w3.org/2000/svg" viewBox="0 0 435.98 68.28">
  <defs>
    <style>
      .cls-1 {
        fill: #fff;
      }

      .cls-2 {
        fill: #f69e1f;
      }

      .cls-3 {
        fill: #ec2426;
      }
    </style>
  </defs>
  <g>
    <path class="cls-1" d="M18.72,41.58c-.79,0-1.5,.32-2.13,.97-.63,.64-.94,1.4-.94,2.29,0,3.12,1.03,4.67,3.08,4.67h22.07v15.65H18.82c-5.15,0-9.57-1.85-13.27-5.55-3.7-3.7-5.55-8.12-5.55-13.27v-1.49c0-5.22,1.85-9.67,5.55-13.37,3.7-3.7,8.12-5.55,13.27-5.55h18.03c-.86-2.61-1.65-4.41-2.38-5.42-1.25-1.6-2.94-2.41-5.05-2.41H5.35V2.45H29.42c4.62,0,9.01,1.65,13.17,4.95,3.96,3.1,6.73,6.9,8.32,11.39l16.24,46.35h-16.69l-8.26-23.57H18.72Z"/>
    <path class="cls-1" d="M109.64,.87c8.32,0,15.38,3.14,21.19,9.41,5.61,6.08,8.42,13.34,8.42,21.79v33.08h-15.65V32.07c0-4.09-1.33-7.71-3.98-10.85-2.66-3.14-5.98-4.7-9.98-4.7s-7.33,1.57-9.98,4.7c-2.66,3.14-3.98,6.75-3.98,10.85v33.08h-15.65V32.07c0-8.45,2.85-15.76,8.57-21.94C94.3,3.96,101.32,.87,109.64,.87Z"/>
    <path class="cls-1" d="M257.93,31.8c-.35,1.06-.53,2.05-.53,2.97,0,5.08,3.74,8.97,11.23,11.67,5.5,1.98,11.36,2.97,17.59,2.97v15.73h-1.69c-8.6,.2-16.94-1.85-25.02-6.14-9.53-5.08-14.33-11.62-14.4-19.61v25.75h-15.65V2.45h15.65V24.14l.5-.4,21.89-21.29h19.74l-19.54,19.42c-2.17,2.19-5.43,5.5-9.78,9.93Z"/>
    <path class="cls-1" d="M340.2,2.45h15.75v62.69h-15.75v-23.47h-24.36v23.47h-15.75V2.45h15.75V25.93h24.36V2.45Z"/>
    <path class="cls-1" d="M387.55,41.58c-.79,0-1.5,.32-2.13,.97-.63,.64-.94,1.4-.94,2.29,0,3.12,1.03,4.67,3.08,4.67h22.07v15.65h-21.99c-5.15,0-9.57-1.85-13.27-5.55-3.7-3.7-5.55-8.12-5.55-13.27v-1.49c0-5.22,1.85-9.67,5.55-13.37s8.12-5.55,13.27-5.55h18.03c-.86-2.61-1.65-4.41-2.38-5.42-1.25-1.6-2.94-2.41-5.05-2.41h-24.07V2.45h24.07c4.62,0,9.01,1.65,13.17,4.95,3.96,3.1,6.74,6.9,8.32,11.39l16.24,46.35h-16.69l-8.26-23.57h-23.48Z"/>
  </g>
  <g>
    <path class="cls-3" d="M204.09,52.17c.69-.44,1.11-1.13,1.59-1.76,3.58-4.71,5.41-10.03,5.5-15.95,.03-1.66,.66-2.94,2.2-3.64,1.94-.87,4.16,.13,4.89,2.13,.06,.18,.02,.41,.22,.53v3.73c-.33,.14-.2,.45-.23,.69-.85,7.35-3.73,13.8-8.74,19.24-5.86,6.36-13.12,10-21.74,10.94-.17,.02-.42-.08-.5,.2h-4c0-.17-.15-.19-.27-.24-1.56-.62-2.42-1.78-2.41-3.45,0-1.64,.88-2.77,2.39-3.41,.22-.14,.47-.08,.71-.09,1.11-.03,2.21,0,3.32-.11,4.79-.47,9.1-2.16,12.96-5,1.51-1.11,2.96-2.3,4.1-3.81Z"/>
    <path class="cls-3" d="M164.75,16.01c-.7,.43-1.13,1.12-1.61,1.75-3.63,4.74-5.5,10.09-5.59,16.07-.03,1.58-.63,2.81-2.07,3.53-2.4,1.19-5.26-.58-5.24-3.29,.04-5.35,1.16-10.47,3.65-15.21,5.36-10.23,13.77-16.38,25.15-18.41,1.9-.34,3.84-.48,5.77-.44,1.81,.03,3.41,1.35,3.67,3.07,.28,1.85-.75,3.51-2.54,4.1-.16,.05-.32,.13-.48,.2-.13,.03-.27,.1-.39,.08-1.08-.19-2.16-.05-3.24,0-4.13,.23-7.99,1.37-11.48,3.59-2.13,1.34-4.22,2.77-5.6,4.97Z"/>
    <path class="cls-2" d="M164.75,16.01c1.38-2.2,3.48-3.63,5.6-4.97,3.49-2.21,7.34-3.36,11.48-3.59,1.08-.06,2.16-.19,3.24,0,.12,.02,.26-.05,.39-.08,1.24,.2,2.5,.26,3.74,.5,5.35,1.08,9.96,3.54,13.83,7.38,1.06,1.06,1.09,2.55,.1,3.57-1.03,1.06-2.5,1.06-3.62,0-3.38-3.2-7.32-5.28-11.93-6.06-5.19-.89-9.95,.35-14.42,2.95-1.49,.85-2.87,1.87-4.11,3.05-.96,.91-2.12,1.11-3.16,.52-1.01-.58-1.43-1.66-1.16-2.93,.02-.11,.03-.22,.03-.33Z"/>
    <path class="cls-2" d="M204.09,52.17c-1.14,1.51-2.6,2.7-4.1,3.81-3.86,2.84-8.17,4.54-12.96,5-1.11,.11-2.21,.08-3.32,.11-.24,0-.49-.06-.71,.09-.78-.3-1.61-.23-2.41-.36-5.33-.83-9.99-3.05-13.99-6.66-.33-.3-.66-.6-.99-.89-1.18-1.05-1.31-2.63-.28-3.72,.98-1.04,2.6-1.05,3.69,.03,1.82,1.8,3.87,3.26,6.19,4.33,8.3,3.82,17.72,2.18,24.27-4.23,1.26-1.23,2.99-1.24,4.06-.01,.56,.64,.79,1.38,.54,2.23-.03,.1-.13,.2,.02,.28Z"/>
    <path class="cls-3" d="M201.87,34.13c-.07,4.75-1.7,8.72-4.85,12.06-.23,.24-.48,.46-.75,.66-.79,.58-1.76,.46-2.39-.28-.61-.7-.6-1.67,.06-2.36,.62-.64,1.24-1.28,1.77-1.99,3.95-5.22,3.47-12.72-1.12-17.4-.23-.24-.48-.46-.7-.71-.67-.76-.65-1.78,.04-2.46s1.72-.68,2.45,.03c3.55,3.44,5.42,7.62,5.49,12.44Z"/>
    <path class="cls-3" d="M166.95,34.13c.06-4.45,1.71-8.33,4.8-11.63,.5-.53,.99-1.05,1.79-.96,.71,.08,1.24,.46,1.5,1.15,.28,.76,.04,1.4-.5,1.94-1.28,1.29-2.33,2.74-3.04,4.41-2.15,5.04-1.07,10.48,2.87,14.49,.16,.15,.31,.32,.44,.5,.58,.85,.46,1.81-.3,2.44-.71,.6-1.71,.56-2.41-.15-3.29-3.37-5.1-7.37-5.14-12.21Z"/>
    <path class="cls-2" d="M189.59,34.12c.02,2.86-2.28,5.2-5.12,5.22-2.9,.01-5.25-2.3-5.25-5.16s2.3-5.21,5.13-5.22c2.91-.01,5.22,2.27,5.24,5.16Z"/>
  </g>
</svg>