<?xml version="1.0" encoding="utf-8"?>
<!-- Generator: Adobe Illustrator 27.0.1, SVG Export Plug-In . SVG Version: 6.00 Build 0)  -->
<svg version="1.1" xmlns="http://www.w3.org/2000/svg" xmlns:xlink="http://www.w3.org/1999/xlink" x="0px" y="0px"
	 viewBox="0 0 780.7 494.1" style="enable-background:new 0 0 780.7 494.1;" xml:space="preserve">
<style type="text/css">
	.st0{display:none;}
	.st1{display:inline;stroke:#FFFFFF;stroke-miterlimit:10;}
	.st2{fill:#FFFFFF;}
	.st3{fill:#EC2426;}
	.st4{fill:#F69E1F;}
</style>
<g id="Layer_2" class="st0">
	<rect x="-133" y="-142.1" class="st1" width="985" height="682"/>
</g>
<g id="Layer_1">
	<g>
		<path class="st2" d="M93.2,251.2c-1.2,0-2.3,0.5-3.3,1.5c-1,1-1.4,2.1-1.4,3.5c0,4.8,1.6,7.1,4.7,7.1h33.7v23.9H93.3
			c-7.9,0-14.6-2.8-20.2-8.5c-5.6-5.6-8.5-12.4-8.5-20.2v-2.3c0-8,2.8-14.8,8.5-20.4c5.6-5.6,12.4-8.5,20.2-8.5h27.5
			c-1.3-4-2.5-6.7-3.6-8.3c-1.9-2.4-4.5-3.7-7.7-3.7H72.8v-23.9h36.7c7,0,13.7,2.5,20.1,7.6c6,4.7,10.3,10.5,12.7,17.4l24.8,70.7
			h-25.5l-12.6-36L93.2,251.2L93.2,251.2z"/>
		<path class="st2" d="M231.9,189.1c12.7,0,23.5,4.8,32.3,14.4c8.6,9.3,12.8,20.4,12.8,33.2v50.5h-23.9v-50.5c0-6.2-2-11.8-6.1-16.6
			c-4.1-4.8-9.1-7.2-15.2-7.2c-6.1,0-11.2,2.4-15.2,7.2c-4.1,4.8-6.1,10.3-6.1,16.6v50.5h-23.9v-50.5c0-12.9,4.3-24,13.1-33.5
			C208.5,193.8,219.2,189.1,231.9,189.1L231.9,189.1z"/>
		<path class="st2" d="M458.2,236.3c-0.5,1.6-0.8,3.1-0.8,4.5c0,7.8,5.7,13.7,17.1,17.8c8.4,3,17.3,4.5,26.8,4.5v24h-2.6
			c-13.1,0.3-25.8-2.8-38.2-9.4c-14.5-7.8-21.9-17.7-22-29.9v39.3h-23.9v-95.7h23.9v33.1l0.8-0.6l33.4-32.5h30.1l-29.8,29.6
			C469.8,224.5,464.8,229.5,458.2,236.3L458.2,236.3z"/>
		<path class="st2" d="M583.7,191.5h24v95.7h-24v-35.8h-37.2v35.8h-24v-95.7h24v35.8h37.2V191.5L583.7,191.5z"/>
		<path class="st2" d="M656,251.2c-1.2,0-2.3,0.5-3.3,1.5c-1,1-1.4,2.1-1.4,3.5c0,4.8,1.6,7.1,4.7,7.1h33.7v23.9h-33.6
			c-7.9,0-14.6-2.8-20.2-8.5c-5.6-5.6-8.5-12.4-8.5-20.2v-2.3c0-8,2.8-14.8,8.5-20.4c5.6-5.6,12.4-8.5,20.2-8.5h27.5
			c-1.3-4-2.5-6.7-3.6-8.3c-1.9-2.4-4.5-3.7-7.7-3.7h-36.7v-23.9h36.7c7,0,13.7,2.5,20.1,7.6c6,4.7,10.3,10.5,12.7,17.4l24.8,70.7
			h-25.5l-12.6-36L656,251.2L656,251.2z"/>
	</g>
	<g>
		<path class="st3" d="M376,267.4c1.1-0.7,1.7-1.7,2.4-2.7c5.5-7.2,8.3-15.3,8.4-24.3c0-2.5,1-4.5,3.4-5.6c3-1.3,6.3,0.2,7.5,3.3
			c0.1,0.3,0,0.6,0.3,0.8v5.7c-0.5,0.2-0.3,0.7-0.4,1.1c-1.3,11.2-5.7,21.1-13.3,29.4c-8.9,9.7-20,15.3-33.2,16.7
			c-0.3,0-0.6-0.1-0.8,0.3h-6.1c0-0.3-0.2-0.3-0.4-0.4c-2.4-0.9-3.7-2.7-3.7-5.3c0-2.5,1.3-4.2,3.6-5.2c0.3-0.2,0.7-0.1,1.1-0.1
			c1.7,0,3.4,0,5.1-0.2c7.3-0.7,13.9-3.3,19.8-7.6C372.1,271.5,374.3,269.7,376,267.4L376,267.4z"/>
		<path class="st3" d="M316,212.2c-1.1,0.7-1.7,1.7-2.5,2.7c-5.5,7.2-8.4,15.4-8.5,24.5c0,2.4-1,4.3-3.2,5.4c-3.7,1.8-8-0.9-8-5
			c0.1-8.2,1.8-16,5.6-23.2c8.2-15.6,21-25,38.4-28.1c2.9-0.5,5.9-0.7,8.8-0.7c2.8,0,5.2,2.1,5.6,4.7c0.4,2.8-1.1,5.4-3.9,6.3
			c-0.2,0.1-0.5,0.2-0.7,0.3c-0.2,0-0.4,0.2-0.6,0.1c-1.6-0.3-3.3-0.1-4.9,0c-6.3,0.4-12.2,2.1-17.5,5.5
			C321.3,206.7,318.1,208.9,316,212.2L316,212.2z"/>
		<path class="st4" d="M316,212.2c2.1-3.4,5.3-5.5,8.5-7.6c5.3-3.4,11.2-5.1,17.5-5.5c1.6-0.1,3.3-0.3,4.9,0c0.2,0,0.4-0.1,0.6-0.1
			c1.9,0.3,3.8,0.4,5.7,0.8c8.2,1.6,15.2,5.4,21.1,11.3c1.6,1.6,1.7,3.9,0.2,5.4c-1.6,1.6-3.8,1.6-5.5,0c-5.2-4.9-11.2-8.1-18.2-9.2
			c-7.9-1.4-15.2,0.5-22,4.5c-2.3,1.3-4.4,2.9-6.3,4.7c-1.5,1.4-3.2,1.7-4.8,0.8c-1.5-0.9-2.2-2.5-1.8-4.5
			C316,212.6,316,212.4,316,212.2L316,212.2z"/>
		<path class="st4" d="M376,267.4c-1.7,2.3-4,4.1-6.3,5.8c-5.9,4.3-12.5,6.9-19.8,7.6c-1.7,0.2-3.4,0.1-5.1,0.2
			c-0.4,0-0.7-0.1-1.1,0.1c-1.2-0.5-2.5-0.4-3.7-0.5c-8.1-1.3-15.2-4.7-21.3-10.2c-0.5-0.5-1-0.9-1.5-1.4c-1.8-1.6-2-4-0.4-5.7
			c1.5-1.6,4-1.6,5.6,0c2.8,2.7,5.9,5,9.4,6.6c12.7,5.8,27,3.3,37-6.5c1.9-1.9,4.6-1.9,6.2,0c0.9,1,1.2,2.1,0.8,3.4
			C376,267.1,375.8,267.3,376,267.4L376,267.4z"/>
		<path class="st3" d="M372.7,239.9c-0.1,7.2-2.6,13.3-7.4,18.4c-0.4,0.4-0.7,0.7-1.1,1c-1.2,0.9-2.7,0.7-3.6-0.4
			c-0.9-1.1-0.9-2.5,0.1-3.6c0.9-1,1.9-2,2.7-3c6-8,5.3-19.4-1.7-26.6c-0.4-0.4-0.7-0.7-1.1-1.1c-1-1.2-1-2.7,0.1-3.8
			c1.1-1,2.6-1,3.7,0C369.7,226.1,372.5,232.5,372.7,239.9L372.7,239.9z"/>
		<path class="st3" d="M319.4,239.9c0.1-6.8,2.6-12.7,7.3-17.7c0.8-0.8,1.5-1.6,2.7-1.5c1.1,0.1,1.9,0.7,2.3,1.8
			c0.4,1.2,0.1,2.1-0.8,3c-2,2-3.6,4.2-4.6,6.7c-3.3,7.7-1.6,16,4.4,22.1c0.2,0.2,0.5,0.5,0.7,0.8c0.9,1.3,0.7,2.8-0.5,3.7
			c-1.1,0.9-2.6,0.9-3.7-0.2C322.2,253.3,319.4,247.2,319.4,239.9L319.4,239.9z"/>
		<path class="st4" d="M353.9,239.8c0,4.4-3.5,7.9-7.8,8c-4.4,0-8-3.5-8-7.9s3.5-7.9,7.8-8C350.4,232,353.9,235.4,353.9,239.8z"/>
	</g>
	<g>
		<path class="st2" d="M313.5,321.4c4.5,0,8.2,1.6,11.4,4.7c3.1,3.2,4.7,7,4.7,11.4v1.3c0,4.4-1.6,8.2-4.7,11.3
			c-3.1,3.2-6.9,4.7-11.4,4.7h-18.8c-1,0-1.9,0.1-2.6,0.4v6.2h34.2v13.4h-47.6v-21.3c0-3.8,1.8-6.9,5.4-9.1c3.1-2,6.6-3,10.6-3h18.8
			c0.7,0,1.4-0.3,1.9-0.8c0.5-0.5,0.8-1.2,0.8-1.9c0-2.7-0.9-4.1-2.7-4.1H282v-13.4L313.5,321.4L313.5,321.4z"/>
		<path class="st2" d="M368.1,320.2c7.7,0,14.2,2.8,19.5,8.3s8,12.2,8,19.9s-2.7,14.3-8,19.9s-11.8,8.4-19.5,8.4s-14.2-2.8-19.5-8.4
			c-5.4-5.6-8-12.2-8-19.9s2.7-14.4,8-19.9S360.4,320.2,368.1,320.2z M368.1,363.3c3.9,0,7.2-1.5,10-4.4s4.1-6.4,4.1-10.4
			s-1.4-7.5-4.1-10.5s-6.1-4.4-10-4.4s-7.3,1.5-10.1,4.4s-4.1,6.5-4.1,10.5s1.4,7.5,4.1,10.4S364.1,363.3,368.1,363.3z"/>
		<path class="st2" d="M441.3,321.4c4.5,0,8.2,1.6,11.4,4.7c3.1,3.2,4.7,7,4.7,11.4v1.3c0,4.4-1.6,8.2-4.7,11.3
			c-3.1,3.2-6.9,4.7-11.4,4.7h-18.8c-1,0-1.9,0.1-2.6,0.4v6.2h34.2v13.4h-47.6v-21.3c0-3.8,1.8-6.9,5.4-9.1c3.1-2,6.6-3,10.6-3h18.8
			c0.7,0,1.4-0.3,1.9-0.8c0.5-0.5,0.8-1.2,0.8-1.9c0-2.7-0.9-4.1-2.7-4.1h-31.4v-13.4L441.3,321.4L441.3,321.4z"/>
		<path class="st2" d="M499.8,321.4c4.5,0,8.2,1.6,11.4,4.7c3.2,3.2,4.7,7,4.7,11.4s-1,7.8-3,10.6c2,2.8,3,6,3,9.4v1.3
			c0,4.4-1.6,8.2-4.7,11.3s-7,4.7-11.4,4.7h-30.1v-13.4h30.2c0.7,0,1.4-0.3,1.9-0.8s0.8-1.2,0.8-1.8c0-2.7-0.9-4-2.7-4h-13.4v-13.4
			h13.4c0.7,0,1.4-0.3,1.9-0.8c0.5-0.5,0.8-1.2,0.8-1.9c0-2.7-0.9-4.1-2.7-4.1h-31.5v-13.4L499.8,321.4L499.8,321.4z"/>
	</g>
	<g>
		<path class="st2" d="M211.5,429v2.2h-17.2v-1.8l10.2-10c1.3-1.3,2.1-2.3,2.6-3.3c0.5-0.9,0.7-1.8,0.7-2.8c0-1.4-0.5-2.6-1.5-3.4
			c-1-0.8-2.4-1.2-4.2-1.2c-2.9,0-5.1,0.9-6.7,2.7l-1.8-1.5c1-1.1,2.2-2,3.7-2.6c1.5-0.6,3.2-0.9,5-0.9c2.5,0,4.5,0.6,5.9,1.8
			c1.5,1.2,2.2,2.8,2.2,4.8c0,1.3-0.3,2.5-0.8,3.6c-0.6,1.2-1.6,2.5-3.2,4L198,429H211.5z"/>
		<path class="st2" d="M231.8,406.8v1.8l-10.2,22.7h-2.7l10.1-22.2h-12.6v4.6h-2.5v-6.8H231.8z"/>
		<path class="st2" d="M240.9,419c-0.3,0.2-0.6,0.4-1,0.6c-0.4,0.1-0.8,0.2-1.3,0.2c-1,0-1.8-0.3-2.3-0.8c-0.5-0.5-0.8-1.3-0.8-2.3
			v-6.5h-1.9v-1.2h1.9v-2.3h1.4v2.3h3.3v1.2H237v6.4c0,0.6,0.2,1.1,0.5,1.5c0.3,0.3,0.8,0.5,1.4,0.5c0.3,0,0.6,0,0.9-0.1
			c0.3-0.1,0.5-0.2,0.7-0.4L240.9,419z"/>
		<path class="st2" d="M252.2,410c0.8,0.8,1.2,1.9,1.2,3.4v6.2H252v-6.1c0-1.1-0.3-2-0.8-2.5c-0.6-0.6-1.4-0.9-2.4-0.9
			c-1.2,0-2.1,0.3-2.7,1c-0.7,0.7-1,1.6-1,2.8v5.6h-1.4v-15.1h1.4v6.3c0.4-0.6,0.9-1.1,1.6-1.4c0.7-0.3,1.5-0.5,2.4-0.5
			C250.4,408.8,251.4,409.2,252.2,410z"/>
		<path class="st2" d="M260.4,428.2c0.3,0.4,0.5,0.8,0.5,1.3c0,0.3,0,0.6-0.1,0.9c-0.1,0.3-0.2,0.7-0.4,1.1l-1.5,4.8h-1.7l1.2-5.1
			c-0.4-0.1-0.7-0.3-0.9-0.6c-0.2-0.3-0.3-0.7-0.3-1.1c0-0.5,0.2-1,0.5-1.3c0.3-0.4,0.8-0.5,1.3-0.5
			C259.6,427.6,260.1,427.8,260.4,428.2z"/>
		<path class="st2" d="M290.4,429v2.2h-17.2v-1.8l10.2-10c1.3-1.3,2.1-2.3,2.6-3.3c0.5-0.9,0.7-1.8,0.7-2.8c0-1.4-0.5-2.6-1.5-3.4
			c-1-0.8-2.4-1.2-4.2-1.2c-2.9,0-5.1,0.9-6.7,2.7l-1.8-1.5c1-1.1,2.2-2,3.7-2.6c1.5-0.6,3.2-0.9,5-0.9c2.5,0,4.5,0.6,5.9,1.8
			c1.5,1.2,2.2,2.8,2.2,4.8c0,1.3-0.3,2.5-0.8,3.6c-0.6,1.2-1.6,2.5-3.2,4L277,429H290.4z"/>
		<path class="st2" d="M311.2,420.7c0.8,1,1.2,2.3,1.2,3.7c0,1.4-0.4,2.7-1.2,3.7c-0.8,1.1-1.9,1.9-3.3,2.4s-3.1,0.9-5.1,0.9
			c-2.9,0-5.2-0.6-6.9-1.9c-1.7-1.3-2.5-3-2.5-5.1c0-1.5,0.4-2.7,1.2-3.7c0.8-1,2-1.8,3.5-2.3c-1.3-0.5-2.2-1.2-2.9-2.1s-1-2-1-3.3
			c0-2,0.8-3.6,2.3-4.7c1.5-1.2,3.6-1.7,6.2-1.7c1.7,0,3.2,0.3,4.5,0.8c1.3,0.5,2.3,1.3,3,2.3s1.1,2.1,1.1,3.4c0,1.3-0.3,2.3-1,3.3
			c-0.7,0.9-1.6,1.6-2.9,2.1C309.1,418.9,310.3,419.7,311.2,420.7z M308,428c1.2-0.9,1.8-2.1,1.8-3.6c0-1.5-0.6-2.7-1.8-3.6
			c-1.2-0.9-2.9-1.3-5.1-1.3c-2.1,0-3.8,0.4-5.1,1.3c-1.2,0.9-1.8,2.1-1.8,3.6c0,1.5,0.6,2.7,1.8,3.6c1.2,0.9,2.9,1.3,5.1,1.3
			C305.1,429.3,306.8,428.9,308,428z M298.4,416.3c1.1,0.8,2.6,1.2,4.4,1.2s3.4-0.4,4.5-1.2s1.6-1.9,1.6-3.2c0-1.4-0.6-2.5-1.7-3.2
			c-1.1-0.8-2.6-1.2-4.4-1.2c-1.9,0-3.3,0.4-4.4,1.2c-1.1,0.8-1.6,1.9-1.6,3.2S297.4,415.5,298.4,416.3z"/>
		<path class="st2" d="M321.7,419c-0.3,0.2-0.6,0.4-1,0.6c-0.4,0.1-0.8,0.2-1.3,0.2c-1,0-1.8-0.3-2.3-0.8c-0.5-0.5-0.8-1.3-0.8-2.3
			v-6.5h-1.9v-1.2h1.9v-2.3h1.4v2.3h3.3v1.2h-3.3v6.4c0,0.6,0.2,1.1,0.5,1.5c0.3,0.3,0.8,0.5,1.4,0.5c0.3,0,0.6,0,0.9-0.1
			c0.3-0.1,0.5-0.2,0.7-0.4L321.7,419z"/>
		<path class="st2" d="M333,410c0.8,0.8,1.2,1.9,1.2,3.4v6.2h-1.4v-6.1c0-1.1-0.3-2-0.8-2.5c-0.6-0.6-1.4-0.9-2.4-0.9
			c-1.2,0-2.1,0.3-2.7,1c-0.7,0.7-1,1.6-1,2.8v5.6h-1.4v-15.1h1.4v6.3c0.4-0.6,0.9-1.1,1.6-1.4c0.7-0.3,1.5-0.5,2.4-0.5
			C331.2,408.8,332.2,409.2,333,410z"/>
		<path class="st2" d="M366.8,431.6l-3.4-3.5c-2.1,2.2-4.8,3.3-8.2,3.3c-1.6,0-3-0.3-4.2-0.8c-1.2-0.5-2.2-1.3-2.9-2.2
			c-0.7-0.9-1-2-1-3.2c0-1.5,0.5-2.8,1.4-3.9s2.5-2.4,4.8-3.7c-1.2-1.2-2-2.2-2.4-3.1c-0.4-0.8-0.7-1.8-0.7-2.7
			c0-1.6,0.6-2.8,1.7-3.8c1.1-1,2.6-1.4,4.5-1.4c1.7,0,3.1,0.4,4.2,1.3c1,0.9,1.5,2.1,1.5,3.6c0,1.2-0.4,2.3-1.2,3.3
			c-0.8,1-2.2,2-4.2,3.2l6.7,6.9c0.7-1.3,1.3-2.9,1.6-4.7l2,0.6c-0.4,2.2-1.2,4.1-2.2,5.6l3.5,3.6L366.8,431.6z M361.9,426.6
			l-7.4-7.6c-1.9,1.1-3.3,2.1-4,3c-0.7,0.9-1.1,1.9-1.1,3c0,1.3,0.5,2.4,1.6,3.2s2.5,1.2,4.3,1.2
			C358.1,429.4,360.3,428.5,361.9,426.6z M353.4,409.4c-0.7,0.6-1,1.4-1,2.4c0,0.7,0.2,1.4,0.6,2.1c0.4,0.7,1.1,1.5,2.2,2.7
			c1.8-1,3-1.9,3.7-2.6c0.7-0.7,1-1.5,1-2.4c0-0.9-0.3-1.7-0.9-2.2c-0.6-0.5-1.5-0.8-2.6-0.8C355.1,408.5,354.1,408.8,353.4,409.4z"
			/>
		<path class="st2" d="M396.4,429v2.2h-17.2v-1.8l10.2-10c1.3-1.3,2.2-2.3,2.6-3.3c0.5-0.9,0.7-1.8,0.7-2.8c0-1.4-0.5-2.6-1.5-3.4
			c-1-0.8-2.4-1.2-4.2-1.2c-2.9,0-5.1,0.9-6.7,2.7l-1.8-1.5c1-1.1,2.2-2,3.7-2.6c1.5-0.6,3.2-0.9,5-0.9c2.5,0,4.5,0.6,5.9,1.8
			c1.5,1.2,2.2,2.8,2.2,4.8c0,1.3-0.3,2.5-0.8,3.6c-0.6,1.2-1.6,2.5-3.2,4l-8.3,8.2H396.4z"/>
		<path class="st2" d="M414.6,409.8c1.7,2.1,2.6,5.1,2.6,9c0,2.7-0.5,5-1.4,6.9c-0.9,1.9-2.2,3.3-3.9,4.3c-1.7,1-3.6,1.5-5.9,1.5
			c-2.4,0-4.4-0.4-5.8-1.3l1-2c1.2,0.8,2.8,1.2,4.8,1.2c2.7,0,4.8-0.9,6.4-2.6s2.3-4.2,2.3-7.5c0-0.6,0-1.3-0.1-2
			c-0.6,1.3-1.6,2.4-2.9,3.1c-1.3,0.7-2.9,1.1-4.6,1.1c-1.6,0-3-0.3-4.3-0.9c-1.2-0.6-2.2-1.5-2.9-2.6c-0.7-1.1-1-2.4-1-3.9
			c0-1.5,0.4-2.8,1.1-4c0.7-1.1,1.7-2,3-2.6c1.3-0.6,2.7-0.9,4.3-0.9C410.4,406.6,412.9,407.6,414.6,409.8z M410.7,418.6
			c0.9-0.5,1.7-1.1,2.2-1.9c0.5-0.8,0.8-1.7,0.8-2.7c0-0.9-0.3-1.8-0.8-2.6c-0.5-0.8-1.2-1.4-2.2-1.9c-1-0.5-2.1-0.7-3.5-0.7
			c-1.8,0-3.2,0.5-4.3,1.5c-1.1,1-1.7,2.3-1.7,3.9c0,1.6,0.6,2.9,1.7,3.8s2.6,1.4,4.5,1.4C408.7,419.3,409.7,419.1,410.7,418.6z"/>
		<path class="st2" d="M426.6,419c-0.3,0.2-0.6,0.4-1,0.6c-0.4,0.1-0.8,0.2-1.3,0.2c-1,0-1.8-0.3-2.3-0.8c-0.5-0.5-0.8-1.3-0.8-2.3
			v-6.5h-1.9v-1.2h1.9v-2.3h1.4v2.3h3.3v1.2h-3.3v6.4c0,0.6,0.2,1.1,0.5,1.5s0.8,0.5,1.4,0.5c0.3,0,0.6,0,0.9-0.1
			c0.3-0.1,0.5-0.2,0.7-0.4L426.6,419z"/>
		<path class="st2" d="M437.9,410c0.8,0.8,1.2,1.9,1.2,3.4v6.2h-1.4v-6.1c0-1.1-0.3-2-0.8-2.5c-0.6-0.6-1.4-0.9-2.4-0.9
			c-1.2,0-2.1,0.3-2.7,1c-0.7,0.7-1,1.6-1,2.8v5.6h-1.4v-15.1h1.4v6.3c0.4-0.6,0.9-1.1,1.6-1.4c0.7-0.3,1.5-0.5,2.4-0.5
			C436.1,408.8,437.2,409.2,437.9,410z"/>
		<path class="st2" d="M456.4,430.2c-1.4-0.8-2.5-1.9-3.4-3.3s-1.2-3-1.2-4.8c0-1.8,0.4-3.4,1.2-4.8c0.8-1.4,1.9-2.5,3.4-3.3
			c1.4-0.8,3-1.2,4.8-1.2c1.8,0,3.4,0.4,4.8,1.2s2.5,1.9,3.3,3.3c0.8,1.4,1.2,3,1.2,4.8c0,1.8-0.4,3.4-1.2,4.8
			c-0.8,1.4-1.9,2.5-3.3,3.3s-3,1.2-4.8,1.2C459.4,431.4,457.8,431,456.4,430.2z M464.7,428.3c1-0.6,1.8-1.4,2.4-2.5
			c0.6-1.1,0.9-2.3,0.9-3.7s-0.3-2.6-0.9-3.7c-0.6-1.1-1.4-1.9-2.4-2.5c-1-0.6-2.2-0.9-3.5-0.9c-1.3,0-2.5,0.3-3.5,0.9
			c-1,0.6-1.9,1.4-2.4,2.5c-0.6,1.1-0.9,2.3-0.9,3.7s0.3,2.6,0.9,3.7c0.6,1.1,1.4,1.9,2.4,2.5c1,0.6,2.2,0.9,3.5,0.9
			C462.5,429.2,463.7,428.9,464.7,428.3z"/>
		<path class="st2" d="M479.2,408.1c-0.5,0.6-0.8,1.4-0.8,2.6v2.2h5.7v2.1h-5.6v16.3H476V415h-3.3v-2.1h3.3v-2.3c0-1.7,0.5-3,1.5-4
			c1-1,2.3-1.5,4.1-1.5c0.7,0,1.4,0.1,2,0.3c0.7,0.2,1.2,0.5,1.6,0.9l-0.8,1.9c-0.7-0.6-1.6-0.9-2.7-0.9
			C480.6,407.2,479.8,407.5,479.2,408.1z"/>
		<path class="st2" d="M512.5,424.7h-13.6l-2.9,6.5h-2.7l11.2-24.5h2.6l11.2,24.5h-2.7L512.5,424.7z M511.5,422.6l-5.9-13.1
			l-5.9,13.1H511.5z"/>
		<path class="st2" d="M535.8,413.9c1.4,0.8,2.5,1.9,3.3,3.3c0.8,1.4,1.2,3,1.2,4.9c0,1.8-0.4,3.5-1.2,4.9c-0.8,1.4-1.9,2.5-3.3,3.3
			c-1.4,0.8-3,1.2-4.7,1.2c-1.5,0-2.8-0.3-4-0.9c-1.2-0.6-2.2-1.5-3-2.7V438h-2.5v-25.2h2.4v3.6c0.7-1.2,1.7-2.1,3-2.8
			c1.2-0.7,2.6-1,4.1-1C532.9,412.7,534.4,413.1,535.8,413.9z M534.5,428.3c1-0.6,1.9-1.4,2.5-2.5c0.6-1.1,0.9-2.3,0.9-3.7
			s-0.3-2.6-0.9-3.7c-0.6-1.1-1.4-1.9-2.5-2.5c-1-0.6-2.2-0.9-3.5-0.9c-1.3,0-2.5,0.3-3.5,0.9c-1,0.6-1.9,1.5-2.4,2.5
			c-0.6,1.1-0.9,2.3-0.9,3.7s0.3,2.6,0.9,3.7c0.6,1.1,1.4,1.9,2.4,2.5c1,0.6,2.2,0.9,3.5,0.9C532.2,429.2,533.4,428.9,534.5,428.3z"
			/>
		<path class="st2" d="M550.3,413.7c1.2-0.6,2.6-0.9,4.3-0.9v2.4l-0.6,0c-1.9,0-3.4,0.6-4.5,1.8c-1.1,1.2-1.6,2.9-1.6,5v9.4h-2.5
			v-18.4h2.4v3.6C548.3,415.2,549.2,414.3,550.3,413.7z"/>
		<path class="st2" d="M559.1,408.3c-0.3-0.3-0.5-0.8-0.5-1.3c0-0.5,0.2-0.9,0.5-1.2c0.3-0.3,0.8-0.5,1.3-0.5s0.9,0.2,1.3,0.5
			s0.5,0.7,0.5,1.2c0,0.5-0.2,0.9-0.5,1.3s-0.8,0.5-1.3,0.5S559.4,408.7,559.1,408.3z M559.1,412.9h2.5v18.4h-2.5V412.9z"/>
		<path class="st2" d="M568.5,405.3h2.5v25.9h-2.5V405.3z"/>
	</g>
</g>
</svg>
