<svg width="48" height="48" viewBox="0 0 48 48" fill="none" xmlns="http://www.w3.org/2000/svg">
	<style>
		.s0 { fill: rgba(235, 230, 208, 1) } 
	</style>
<path   class="s0" d="M24.0053 11.6933C17.1948 11.6933 11.7014 17.1879 11.7014 24C11.7014 30.8121 17.1948 36.3067 24.0053 36.3067C30.8159 36.3067 36.3093 30.8121 36.3093 24C36.3093 17.1879 30.8159 11.6933 24.0053 11.6933ZM24.0053 32.001C19.6041 32.001 16.0061 28.4129 16.0061 24C16.0061 19.5871 19.5934 15.999 24.0053 15.999C28.4173 15.999 32.0046 19.5871 32.0046 24C32.0046 28.4129 28.4066 32.001 24.0053 32.001ZM39.6825 11.1899C39.6825 12.7857 38.3974 14.0604 36.8126 14.0604C35.2171 14.0604 33.9427 12.775 33.9427 11.1899C33.9427 9.60477 35.2278 8.31935 36.8126 8.31935C38.3974 8.31935 39.6825 9.60477 39.6825 11.1899ZM47.8314 14.1032C47.6494 10.2582 46.7713 6.85213 43.9549 4.04575C41.1494 1.23964 37.7441 0.361389 33.8999 0.16863C29.9379 -0.0562099 18.0621 -0.0562099 14.1001 0.16863C10.2666 0.350695 6.86129 1.22894 4.04512 4.03505C1.22867 6.84143 0.361308 10.2475 0.168592 14.0925C-0.0561974 18.0555 -0.0561974 29.9338 0.168592 33.8968C0.350617 37.7418 1.22867 41.1479 4.04512 43.954C6.86129 46.7604 10.2559 47.6386 14.1001 47.8314C18.0621 48.0562 29.9379 48.0562 33.8999 47.8314C37.7441 47.6493 41.1494 46.7711 43.9549 43.954C46.7606 41.1479 47.6387 37.7418 47.8314 33.8968C48.0562 29.9338 48.0562 18.0661 47.8314 14.1032ZM42.7128 38.1487C41.8775 40.2482 40.2607 41.8654 38.1512 42.7116C34.9921 43.9647 27.4962 43.6757 24.0053 43.6757C20.5145 43.6757 13.0079 43.954 9.85977 42.7116C7.76073 41.8761 6.14388 40.2589 5.29791 38.1487C4.04512 34.9892 4.33405 27.4916 4.33405 24C4.33405 20.5084 4.05581 13.0001 5.29791 9.851C6.13319 7.75176 7.75003 6.13456 9.85977 5.2884C13.0186 4.03505 20.5145 4.32433 24.0053 4.32433C27.4962 4.32433 35.0028 4.04574 38.1512 5.2884C40.25 6.12387 41.8668 7.74107 42.7128 9.851C43.9658 13.0108 43.6766 20.5084 43.6766 24C43.6766 27.4916 43.9658 34.9999 42.7128 38.1487Z" fill="#00060A"/>
</svg>
