<svg width="46" height="43" viewBox="0 0 46 43" fill="none" xmlns="http://www.w3.org/2000/svg">
<path d="M6.68187 0.889648C3.35067 0.889648 0.93125 2.88592 0.93125 5.63152C0.93125 8.38672 3.40827 10.4709 6.68187 10.4709C10.0131 10.4709 12.4325 8.43607 12.4325 5.57527C12.2789 2.82007 9.90747 0.889648 6.68187 0.889648ZM1.88187 12.4003C1.35387 12.4003 0.921875 12.8323 0.921875 13.3603V41.2003C0.921875 41.7283 1.35387 42.1603 1.88187 42.1603H11.4819C12.0099 42.1603 12.4419 41.7283 12.4419 41.2003V13.3603C12.4419 12.8323 12.0099 12.4003 11.4819 12.4003H1.88187ZM16.2819 12.4003C15.7539 12.4003 15.3219 12.8323 15.3219 13.3603V41.2003C15.3219 41.7283 15.7539 42.1603 16.2819 42.1603H24.9219C25.4518 42.1603 25.8819 41.7302 25.8819 41.2003V26.8003V26.5603V26.3203C25.8819 24.0451 27.6297 22.1918 29.8569 22.019C29.9721 21.9998 30.0867 22.0003 30.2019 22.0003C30.3171 22.0003 30.4317 21.9998 30.5469 22.019C32.7741 22.1918 34.5219 24.0451 34.5219 26.3203V41.2003C34.5219 41.7302 34.952 42.1603 35.4819 42.1603H44.1219C44.6499 42.1603 45.0819 41.7283 45.0819 41.2003V24.8803C45.0819 18.6691 41.7498 12.4003 34.3194 12.4003C30.9402 12.4003 28.3875 13.7061 26.8419 14.7909V13.3603C26.8419 12.8323 26.4099 12.4003 25.8819 12.4003H16.2819Z" fill="#EBE6D0"/>
</svg>
